<svg width="283" height="89" viewBox="0 0 283 89" fill="none" xmlns="http://www.w3.org/2000/svg">
<g filter="url(#filter0_di_40_27)">
<rect x="22.5" y="14" width="256" height="60" rx="12" fill="#B7D0ED" shape-rendering="crispEdges"/>
<path d="M135.253 34.42C134.773 34.42 134.389 34.276 134.101 33.988C133.813 33.7 133.669 33.308 133.669 32.812C133.669 32.348 133.813 31.972 134.101 31.684C134.389 31.396 134.773 31.252 135.253 31.252C135.733 31.252 136.109 31.396 136.381 31.684C136.669 31.956 136.813 32.332 136.813 32.812C136.813 33.884 136.293 34.42 135.253 34.42ZM138.637 44.596H140.797V47.5H138.349C137.805 47.5 137.301 47.428 136.837 47.284C136.629 48.82 136.013 50.036 134.989 50.932C134.061 51.732 132.949 52.132 131.653 52.132C130.645 52.132 129.661 51.876 128.701 51.364V48.724C129.533 49.188 130.349 49.42 131.149 49.42C132.029 49.42 132.709 49.132 133.189 48.556C133.685 47.996 133.933 47.212 133.933 46.204V38.428L135.901 37.396L136.933 36.844V36.868L136.957 36.844V42.868C136.957 43.492 137.085 43.94 137.341 44.212C137.597 44.468 138.029 44.596 138.637 44.596ZM155.014 44.596H157.03V47.5H154.99C153.726 47.5 152.71 47.364 151.942 47.092C151.19 46.804 150.486 46.308 149.83 45.604C147.83 46.868 145.526 47.5 142.918 47.5H139.366V44.596H142.942C145.758 44.596 147.998 43.756 149.662 42.076C148.574 40.172 147.254 39.22 145.702 39.22C144.422 39.22 143.022 39.916 141.502 41.308V38.644C142.846 37.172 144.366 36.436 146.062 36.436C147.31 36.436 148.526 36.892 149.71 37.804C150.894 38.716 151.942 40.012 152.854 41.692V42.892C152.598 43.228 152.262 43.604 151.846 44.02C152.486 44.404 153.542 44.596 155.014 44.596ZM148.366 49.684C148.846 49.684 149.222 49.82 149.494 50.092C149.782 50.38 149.926 50.764 149.926 51.244C149.926 52.316 149.406 52.852 148.366 52.852C147.886 52.852 147.502 52.708 147.214 52.42C146.926 52.132 146.782 51.74 146.782 51.244C146.782 50.78 146.926 50.404 147.214 50.116C147.502 49.828 147.886 49.684 148.366 49.684ZM171.233 44.596H173.249V47.5H171.209C169.945 47.5 168.929 47.364 168.161 47.092C167.409 46.804 166.705 46.308 166.049 45.604C164.049 46.868 161.745 47.5 159.137 47.5H155.585V44.596H159.161C161.977 44.596 164.217 43.756 165.881 42.076C164.793 40.172 163.473 39.22 161.921 39.22C160.641 39.22 159.241 39.916 157.721 41.308V38.644C159.065 37.172 160.585 36.436 162.281 36.436C163.529 36.436 164.745 36.892 165.929 37.804C167.113 38.716 168.161 40.012 169.073 41.692V42.892C168.817 43.228 168.481 43.604 168.065 44.02C168.705 44.404 169.761 44.596 171.233 44.596ZM171.803 47.5V44.596H173.315C174.051 44.596 174.571 44.436 174.875 44.116C175.195 43.796 175.355 43.252 175.355 42.484V33.628L178.355 32.02V42.508C178.355 44.06 177.883 45.3 176.939 46.228C176.075 47.076 174.923 47.5 173.483 47.5H171.803ZM182.676 47.5V33.628L185.7 32.02V47.5H182.676ZM194.865 30.676L195.633 29.284H196.353C196.177 28.964 196.089 28.636 196.089 28.3C196.089 27.788 196.273 27.348 196.641 26.98C197.025 26.612 197.481 26.428 198.009 26.428C198.489 26.428 198.937 26.596 199.353 26.932V28.324C198.969 27.988 198.585 27.82 198.201 27.82C197.673 27.82 197.409 28.06 197.409 28.54C197.409 28.78 197.513 29.028 197.721 29.284H200.097L199.329 30.676H194.865ZM195.777 47.5V33.628L198.801 32.02V47.5H195.777ZM201.193 47.5L202.705 44.596H206.497C207.313 44.596 207.721 44.124 207.721 43.18C207.721 41.42 206.873 40.068 205.177 39.124L206.665 36.556C209.161 38.012 210.505 39.988 210.697 42.484C210.761 43.284 210.937 43.836 211.225 44.14C211.529 44.444 212.041 44.596 212.761 44.596H214.585V47.5H212.593C211.409 47.5 210.409 47.172 209.593 46.516C209.001 47.172 208.153 47.5 207.049 47.5H201.193ZM213.147 47.5V44.596H215.307C215.915 44.596 216.347 44.468 216.603 44.212C216.859 43.94 216.987 43.492 216.987 42.868V38.428L220.011 36.844V43.012C220.011 44.468 219.563 45.604 218.667 46.42C217.883 47.14 216.859 47.5 215.595 47.5H213.147ZM218.235 52.852C217.755 52.852 217.371 52.708 217.083 52.42C216.795 52.132 216.651 51.74 216.651 51.244C216.651 50.78 216.795 50.404 217.083 50.116C217.371 49.828 217.755 49.684 218.235 49.684C218.715 49.684 219.091 49.82 219.363 50.092C219.651 50.38 219.795 50.764 219.795 51.244C219.795 52.316 219.275 52.852 218.235 52.852ZM224.324 47.5V33.628L227.348 32.02V47.5H224.324Z" fill="#1666C4"/>
</g>
<g filter="url(#filter1_d_40_27)">
<ellipse cx="53.5" cy="43.5" rx="45" ry="36.5" fill="#B7D0ED"/>
</g>
<path d="M51 24.75V32.25" stroke="#1666C4" stroke-width="2" stroke-linecap="round" stroke-linejoin="round"/>
<path fill-rule="evenodd" clip-rule="evenodd" d="M49.125 41.625L67.875 45.375L62.25 49.125L67.875 54.75L62.25 60.375L56.625 54.75L52.875 60.375L49.125 41.625Z" fill="#1666C4" stroke="#1666C4" stroke-width="2" stroke-linecap="round" stroke-linejoin="round"/>
<path d="M64.2581 30.2419L58.9547 35.5453M37.7419 56.7581L43.0453 51.4547M32.25 43.5H39.75M37.7419 30.2419L43.0453 35.5453" stroke="#1666C4" stroke-width="2" stroke-linecap="round" stroke-linejoin="round"/>
<defs>
<filter id="filter0_di_40_27" x="18.5" y="11" width="264" height="68" filterUnits="userSpaceOnUse" color-interpolation-filters="sRGB">
<feFlood flood-opacity="0" result="BackgroundImageFix"/>
<feColorMatrix in="SourceAlpha" type="matrix" values="0 0 0 0 0 0 0 0 0 0 0 0 0 0 0 0 0 0 127 0" result="hardAlpha"/>
<feOffset dy="1"/>
<feGaussianBlur stdDeviation="2"/>
<feComposite in2="hardAlpha" operator="out"/>
<feColorMatrix type="matrix" values="0 0 0 0 0.364706 0 0 0 0 0.301961 0 0 0 0 0.560784 0 0 0 1 0"/>
<feBlend mode="normal" in2="BackgroundImageFix" result="effect1_dropShadow_40_27"/>
<feBlend mode="normal" in="SourceGraphic" in2="effect1_dropShadow_40_27" result="shape"/>
<feColorMatrix in="SourceAlpha" type="matrix" values="0 0 0 0 0 0 0 0 0 0 0 0 0 0 0 0 0 0 127 0" result="hardAlpha"/>
<feOffset dy="1"/>
<feGaussianBlur stdDeviation="2"/>
<feComposite in2="hardAlpha" operator="arithmetic" k2="-1" k3="1"/>
<feColorMatrix type="matrix" values="0 0 0 0 0.364706 0 0 0 0 0.301961 0 0 0 0 0.560784 0 0 0 1 0"/>
<feBlend mode="normal" in2="shape" result="effect2_innerShadow_40_27"/>
</filter>
<filter id="filter1_d_40_27" x="0.5" y="0" width="106" height="89" filterUnits="userSpaceOnUse" color-interpolation-filters="sRGB">
<feFlood flood-opacity="0" result="BackgroundImageFix"/>
<feColorMatrix in="SourceAlpha" type="matrix" values="0 0 0 0 0 0 0 0 0 0 0 0 0 0 0 0 0 0 127 0" result="hardAlpha"/>
<feOffset dy="1"/>
<feGaussianBlur stdDeviation="4"/>
<feComposite in2="hardAlpha" operator="out"/>
<feColorMatrix type="matrix" values="0 0 0 0 0.364706 0 0 0 0 0.301961 0 0 0 0 0.560784 0 0 0 1 0"/>
<feBlend mode="normal" in2="BackgroundImageFix" result="effect1_dropShadow_40_27"/>
<feBlend mode="normal" in="SourceGraphic" in2="effect1_dropShadow_40_27" result="shape"/>
</filter>
</defs>
</svg>
