<svg width="52" height="61" viewBox="0 0 52 61" fill="none" xmlns="http://www.w3.org/2000/svg">
<path d="M35.9213 26.938C34.8336 26.8449 33.8196 27.2002 33.0439 27.8502C32.2704 28.5045 31.7483 29.4449 31.6573 30.5304C31.5641 31.6224 31.9194 32.6364 32.5673 33.4099C33.2238 34.1855 34.1554 34.7077 35.2474 34.7987C36.3373 34.8897 37.3491 34.5344 38.1248 33.8887C38.9004 33.2322 39.4204 32.2962 39.5179 31.2064C39.6089 30.1165 39.2558 29.1047 38.6036 28.329C37.9493 27.5555 37.0111 27.0355 35.9213 26.938Z" fill="white"/>
<path d="M20.605 12.2568C18.9887 12.1203 17.4893 12.6425 16.341 13.6131C15.1905 14.5816 14.4192 15.9705 14.2805 17.5868C14.1418 19.201 14.6683 20.7025 15.6325 21.8508C16.6032 23.0035 17.9942 23.7748 19.6062 23.9113C21.2203 24.0478 22.7197 23.5235 23.8723 22.5615C25.0228 21.5908 25.7942 20.1998 25.935 18.5856C26.0693 16.9736 25.5493 15.47 24.5808 14.3216C23.6102 13.169 22.2213 12.3976 20.605 12.2568Z" fill="white"/>
<path d="M39.7433 11.1929C38.6534 11.1019 37.6416 11.455 36.8659 12.105C36.0903 12.7594 35.5681 13.6997 35.4771 14.7852C35.3861 15.8794 35.7371 16.889 36.3893 17.6625C37.0414 18.4382 37.9796 18.9604 39.0673 19.0535C40.1549 19.1445 41.1689 18.7892 41.9446 18.1414C42.7203 17.487 43.2424 16.5489 43.3356 15.4634C43.4266 14.3714 43.0734 13.3595 42.4191 12.5839C41.7691 11.8104 40.8331 11.2882 39.7433 11.1929Z" fill="white"/>
<path d="M25.8072 0.166748C12.6989 0.166748 4.05821 9.99908 4.05821 23.1074C4.05821 23.7574 4.46555 23.9307 4.51755 25.4929C4.57171 27.0551 0.890548 34.6666 0.418215 35.8929C-0.0172851 37.0282 0.251382 39.0931 1.96955 39.0454C4.10371 38.9826 4.33338 40.3584 3.27822 41.0929C2.76905 41.4482 3.26522 42.9888 3.59888 43.2033C3.93688 43.4178 5.86522 44.0916 5.98655 44.2129C6.11005 44.3364 5.26722 44.8564 5.00722 45.3136C4.74722 45.7729 5.37338 47.2701 5.37338 47.2701C5.37338 47.2701 5.98005 47.6471 7.08721 48.3729C8.37205 49.2136 7.19338 51.9804 7.20855 52.7778C7.22371 53.5751 8.31138 56.3268 11.1237 56.3268C13.9382 56.3268 18.6485 54.4916 18.6485 54.4916L19.9247 60.5257C20.852 60.1964 41.4722 60.9461 41.9142 60.8161L40.8547 45.4977C43.6085 40.9066 50.2147 33.7501 50.9492 26.7778C53.3369 8.97858 40.8569 0.166748 25.8072 0.166748ZM24.4877 26.0302C23.4672 26.5957 22.3319 26.9641 21.1337 27.0984L20.956 29.1416L17.3875 28.8296L17.563 26.7907C16.406 26.4549 15.3487 25.8894 14.4387 25.1657L12.8679 26.4874L10.5625 23.7466L12.142 22.4162C11.5874 21.3979 11.2212 20.2647 11.0912 19.0709L9.01988 18.8889L9.32755 15.3226L11.4097 15.5002C11.7477 14.3562 12.3045 13.3076 13.0282 12.4106L11.674 10.7986L14.4127 8.49325L15.7777 10.1182C16.7852 9.56575 17.9075 9.20175 19.0862 9.06742L19.2682 6.95492L22.8389 7.26042L22.6569 9.37725C23.7965 9.71091 24.8344 10.2612 25.7335 10.9741L27.3542 9.60691L29.666 12.3477L28.0562 13.7019C28.6109 14.7116 28.9835 15.8339 29.1222 17.0212L31.2044 17.2011L30.8989 20.7739L28.8297 20.5919C28.496 21.7489 27.9436 22.8019 27.2242 23.7119L28.5567 25.2957L25.8137 27.6011L24.4877 26.0302ZM42.8632 32.6819L41.4657 32.5606C41.2425 33.3406 40.8699 34.0534 40.3845 34.6644L41.2815 35.7304L39.4334 37.2861L38.5407 36.2287C37.8517 36.6101 37.0869 36.8592 36.2787 36.9502L36.1595 38.3261L33.7502 38.1202L33.8694 36.7444C33.0872 36.5191 32.37 36.1399 31.7612 35.6481L30.7039 36.5364L29.1482 34.6926L30.2142 33.7912C29.8394 33.1044 29.5924 32.3417 29.5057 31.5357L28.106 31.4144L28.3141 29.0094L29.718 29.1286C29.9434 28.3572 30.3204 27.6509 30.81 27.0486L29.8957 25.9609L31.7439 24.4031L32.6647 25.4994C33.3429 25.1267 34.1012 24.8819 34.8964 24.7952L35.0155 23.3696L37.4227 23.5754L37.3014 25.0032C38.0727 25.2264 38.7704 25.5991 39.3792 26.0779L40.4712 25.1592L42.029 27.0074L40.9414 27.9217C41.3162 28.6042 41.5675 29.3604 41.6607 30.1621L43.0647 30.2834L42.8632 32.6819ZM46.6852 16.9389L45.2855 16.8176C45.0624 17.5954 44.6897 18.3082 44.2044 18.9192L45.1014 19.9874L43.2532 21.5431L42.3605 20.4857C41.6737 20.8649 40.9067 21.1141 40.0964 21.2051L39.9815 22.5831L37.5722 22.3729L37.6914 20.9971C36.9114 20.7717 36.1964 20.3926 35.581 19.9029L34.5259 20.7912L32.9702 18.9452L34.0362 18.0439C33.6614 17.3592 33.4144 16.5944 33.3277 15.7862L31.928 15.6649L32.1339 13.2621L33.5401 13.3769C33.7675 12.6077 34.1424 11.9014 34.632 11.2969L33.7177 10.2071L35.5637 8.65141L36.4845 9.74992C37.1649 9.37508 37.9232 9.13025 38.7184 9.04358L38.8375 7.61575L41.2469 7.82375L41.1234 9.25158C41.8947 9.47475 42.5945 9.84525 43.2012 10.3262L44.2954 9.40541L45.8532 11.2536L44.7655 12.1657C45.1404 12.8482 45.3917 13.6022 45.4849 14.4061L46.8889 14.5274L46.6852 16.9389Z" fill="white"/>
</svg>
