<svg width="65" height="51" viewBox="0 0 65 51" fill="none" xmlns="http://www.w3.org/2000/svg">
<path d="M8.01291 40.099V29.7661L4.85391 27.9526V40.0101C3.41308 40.5973 2.39258 42.01 2.39258 43.6631C2.39258 45.8428 4.16058 47.6108 6.34025 47.6108C8.51991 47.6108 10.2879 45.8428 10.2879 43.6631C10.2879 42.0836 9.35408 40.7295 8.01291 40.099Z" fill="white"/>
<path d="M32.8798 42.9721C31.647 42.9721 30.4315 42.6471 29.3633 42.0339L11.9217 32.0131V39.8824C12.0018 39.9344 12.0755 39.9929 12.16 40.0406L29.7338 50.1372C31.6817 51.2574 34.078 51.2574 36.028 50.1372L53.6018 40.0406C55.5627 38.9139 56.7717 36.8252 56.7717 34.5632V30.3274L36.3963 42.0339C35.3282 42.6471 34.1127 42.9721 32.8798 42.9721ZM63.3843 16.5799L36.0258 0.862915C35.0508 0.303915 33.9653 0.0244141 32.8798 0.0244141C31.7943 0.0244141 30.7067 0.303915 29.7338 0.862915L2.37535 16.5799C0.293179 17.7759 0.293179 20.7789 2.37535 21.9749L31.3285 38.6106C31.8073 38.8857 32.3425 39.0244 32.8777 39.0244C33.4128 39.0244 33.948 38.8857 34.4268 38.6106L63.38 21.9749C65.4665 20.7789 65.4665 17.7759 63.3843 16.5799Z" fill="white"/>
</svg>
