<svg width="32" height="32" viewBox="0 0 32 32" fill="none" xmlns="http://www.w3.org/2000/svg">
<path d="M2.66699 25.9999C2.66699 24.2318 3.36937 22.5361 4.61961 21.2859C5.86986 20.0356 7.56555 19.3333 9.33366 19.3333H22.667C24.4351 19.3333 26.1308 20.0356 27.381 21.2859C28.6313 22.5361 29.3337 24.2318 29.3337 25.9999C29.3337 26.884 28.9825 27.7318 28.3573 28.3569C27.7322 28.9821 26.8844 29.3333 26.0003 29.3333H6.00033C5.11627 29.3333 4.26842 28.9821 3.6433 28.3569C3.01818 27.7318 2.66699 26.884 2.66699 25.9999Z" stroke="#1666C4" stroke-width="4.16667" stroke-linejoin="round"/>
<path d="M16 12.6666C18.7614 12.6666 21 10.428 21 7.66663C21 4.9052 18.7614 2.66663 16 2.66663C13.2386 2.66663 11 4.9052 11 7.66663C11 10.428 13.2386 12.6666 16 12.6666Z" stroke="#1666C4" stroke-width="4.16667"/>
</svg>
