<svg width="15" height="15" viewBox="0 0 15 15" fill="none" xmlns="http://www.w3.org/2000/svg">
<path d="M10.5041 8.00397C11.2097 7.45517 11.6857 6.74957 11.9321 5.88717C12.1785 5.02477 12.1561 4.17077 11.8649 3.32517C11.5737 2.47957 11.0641 1.79917 10.3361 1.28397C9.60807 0.768774 8.79607 0.511173 7.90007 0.511173C7.00407 0.511173 6.19207 0.768774 5.46407 1.28397C4.73607 1.79917 4.22647 2.47957 3.93527 3.32517C3.64407 4.17077 3.62167 5.02477 3.86807 5.88717C4.11447 6.74957 4.59047 7.45517 5.29607 8.00397C4.09767 8.48557 3.10927 9.23877 2.33087 10.2636C1.55247 11.2884 1.09047 12.4392 0.944866 13.716C0.922466 13.9064 0.972866 14.08 1.09607 14.2368C1.21927 14.3936 1.37607 14.4832 1.56647 14.5056C1.75687 14.528 1.93047 14.4776 2.08727 14.3544C2.24407 14.2312 2.33367 14.0744 2.35607 13.884C2.45687 12.9544 2.76767 12.1088 3.28847 11.3472C3.80927 10.5856 4.47567 9.98637 5.28767 9.54957C6.09967 9.11277 6.97607 8.89437 7.91687 8.89437C8.85767 8.89437 9.73407 9.11277 10.5461 9.54957C11.3581 9.98637 12.0245 10.5856 12.5453 11.3472C13.0661 12.1088 13.3769 12.9544 13.4777 13.884C13.5001 14.0632 13.5785 14.2116 13.7129 14.3292C13.8473 14.4468 14.0041 14.5056 14.1833 14.5056H14.2505C14.4409 14.4832 14.5977 14.3964 14.7209 14.2452C14.8441 14.094 14.8945 13.9232 14.8721 13.7328C14.7265 12.4448 14.2617 11.2884 13.4777 10.2636C12.6937 9.23877 11.7025 8.48557 10.5041 8.00397ZM7.90007 7.49997C7.39607 7.49997 6.92847 7.37397 6.49727 7.12197C6.06607 6.86997 5.72447 6.52837 5.47247 6.09717C5.22047 5.66597 5.09447 5.19837 5.09447 4.69437C5.09447 4.19037 5.22047 3.72277 5.47247 3.29157C5.72447 2.86037 6.06607 2.51877 6.49727 2.26677C6.92847 2.01477 7.39607 1.88877 7.90007 1.88877C8.40407 1.88877 8.87167 2.01477 9.30287 2.26677C9.73407 2.51877 10.0757 2.86037 10.3277 3.29157C10.5797 3.72277 10.7057 4.19037 10.7057 4.69437C10.7057 5.19837 10.5797 5.66597 10.3277 6.09717C10.0757 6.52837 9.73407 6.86997 9.30287 7.12197C8.87167 7.37397 8.40407 7.49997 7.90007 7.49997Z" fill="#EE0201"/>
</svg>
