<svg width="55" height="63" viewBox="0 0 55 63" fill="none" xmlns="http://www.w3.org/2000/svg">
<path d="M32.786 14.2707L29.6096 13.8092L28.1883 10.9319C27.6965 9.93741 26.9013 9.93741 26.4116 10.9319L24.9903 13.8092L21.814 14.2707C20.7176 14.4311 20.4706 15.1872 21.2658 15.9607L23.5646 18.2011L23.023 21.3644C22.8345 22.4586 23.4801 22.9266 24.4616 22.4087L27.3021 20.9159L30.1426 22.4087C31.1241 22.9244 31.7676 22.4564 31.5813 21.3644L31.0396 18.2011L33.3363 15.9607C34.1293 15.1894 33.8823 14.4311 32.786 14.2707Z" fill="white"/>
<path d="M52.975 4.98216H43.4677V0.347656H11.1345V4.98432H1.625C0.728 4.98432 0 5.71232 0 6.60932V15.3258C0 20.3157 4.04517 24.3608 9.035 24.3608H12.3002C13.5763 27.275 15.756 29.9335 18.1458 31.8748L18.8565 32.4512C21.008 34.1932 22.2582 36.8127 22.2582 39.5795V43.3343H32.3375V39.0487C32.3375 36.6177 33.436 34.3145 35.3253 32.7848L36.4498 31.8748C38.8397 29.9357 41.0215 27.275 42.2955 24.3608H45.5628C50.5527 24.3608 54.5978 20.3157 54.5978 15.3258V6.60932C54.6 5.71016 53.872 4.98216 52.975 4.98216ZM9.035 20.1597C6.36567 20.1597 4.199 17.9952 4.199 15.3237V9.18332H11.1323V19.2085C11.1323 19.527 11.1822 19.8433 11.2103 20.1618H9.035V20.1597ZM32.825 25.156C23.1075 30.3993 13.3033 20.5952 18.5445 10.8777C19.279 9.51482 20.4165 8.37732 21.7793 7.64499C31.4925 2.41032 41.2902 12.208 36.0577 21.9212C35.3253 23.284 34.1878 24.4215 32.825 25.156ZM50.401 15.3237C50.401 17.9952 48.2365 20.1597 45.565 20.1597H43.3897C43.4178 19.8412 43.4677 19.5248 43.4677 19.2063V9.18332H50.401V15.3237ZM44.1003 57.6127H40.7398V52.2068C40.7398 49.6263 38.6468 47.5333 36.0663 47.5333H18.5337C15.9532 47.5333 13.8602 49.6263 13.8602 52.2068V57.6127H10.4997V62.6523H44.1003V57.6127ZM34.7663 52.573V55.9335H19.8337V52.573H34.7663Z" fill="white"/>
</svg>
