<svg width="38" height="32" viewBox="0 0 38 32" fill="none" xmlns="http://www.w3.org/2000/svg">
<path d="M18.717 10L24.0003 15.2667V15C24.0003 13.6739 23.4735 12.4021 22.5359 11.4645C21.5982 10.5268 20.3264 10 19.0003 10H18.717ZM11.5503 11.3333L14.1337 13.9167C14.0503 14.2667 14.0003 14.6167 14.0003 15C14.0003 16.3261 14.5271 17.5979 15.4648 18.5355C16.4025 19.4732 17.6742 20 19.0003 20C19.367 20 19.7337 19.95 20.0837 19.8667L22.667 22.45C21.5503 23 20.317 23.3333 19.0003 23.3333C16.7902 23.3333 14.6706 22.4554 13.1078 20.8926C11.545 19.3298 10.667 17.2101 10.667 15C10.667 13.6833 11.0003 12.45 11.5503 11.3333ZM2.33366 2.11667L6.13366 5.91667L6.88366 6.66667C4.13366 8.83333 1.96699 11.6667 0.666992 15C3.55033 22.3167 10.667 27.5 19.0003 27.5C21.5837 27.5 24.0503 27 26.3003 26.1L27.017 26.8L31.8837 31.6667L34.0003 29.55L4.45033 0M19.0003 6.66667C21.2105 6.66667 23.3301 7.54464 24.8929 9.10744C26.4557 10.6702 27.3337 12.7899 27.3337 15C27.3337 16.0667 27.117 17.1 26.7337 18.0333L31.617 22.9167C34.117 20.8333 36.117 18.1 37.3337 15C34.4503 7.68333 27.3337 2.5 19.0003 2.5C16.667 2.5 14.4337 2.91667 12.3337 3.66667L15.9503 7.25C16.9003 6.88333 17.917 6.66667 19.0003 6.66667Z" fill="#1666C4"/>
</svg>
