<svg width="40" height="40" viewBox="0 0 40 40" fill="none" xmlns="http://www.w3.org/2000/svg">
<path d="M31.6663 8.3335L22.6663 17.3335M31.6663 8.3335H23.333M31.6663 8.3335V16.6668M8.33301 23.3335C8.33301 25.5436 9.21098 27.6632 10.7738 29.2261C12.3366 30.7889 14.4562 31.6668 16.6663 31.6668C18.8765 31.6668 20.9961 30.7889 22.5589 29.2261C24.1217 27.6632 24.9997 25.5436 24.9997 23.3335C24.9997 21.1234 24.1217 19.0037 22.5589 17.4409C20.9961 15.8781 18.8765 15.0002 16.6663 15.0002C14.4562 15.0002 12.3366 15.8781 10.7738 17.4409C9.21098 19.0037 8.33301 21.1234 8.33301 23.3335Z" stroke="#1666C4" stroke-width="3.33333" stroke-linecap="round" stroke-linejoin="round"/>
</svg>
