<svg width="66" height="29" viewBox="0 0 66 29" fill="none" xmlns="http://www.w3.org/2000/svg">
<path opacity="0.95" d="M53.96 4.62817V23.4985H65.66V4.62817H53.96ZM63.0193 20.35C62.2881 20.8782 61.4553 21.0813 60.5818 21.1625C60.2365 21.2032 59.9318 21.2641 59.5865 21.2438C58.2053 21.1829 56.7225 20.6344 55.91 19.4766C55.3412 18.6844 55.0772 17.811 55.0772 16.836C55.0772 16.6532 55.0975 16.45 55.0975 16.2672C55.0975 16.186 55.0568 16.0844 55.1178 16.0235C55.199 15.9219 55.6865 15.9829 55.8287 15.9829H57.7178C57.8396 15.9829 58.2459 15.9219 58.3271 16.0235C58.449 16.1657 58.3068 16.511 58.3068 16.6735C58.3271 17.2016 58.4693 17.75 58.9365 18.0547C59.7084 18.5625 61.3334 18.4204 61.435 17.2625C61.4756 16.7547 61.1303 16.2672 60.724 16.0438C60.0334 15.6375 59.2615 15.4141 58.51 15.1704C57.6568 14.886 56.7631 14.4391 56.1537 13.7282C55.2396 12.6313 55.0568 10.8032 55.6053 9.52349C55.7475 9.19849 55.91 8.81255 56.174 8.54849C57.0271 7.65474 58.0225 7.24848 59.2209 7.1063C59.5053 7.06567 59.7693 7.00473 60.0537 7.02505C60.2568 7.02505 60.4397 7.1063 60.6225 7.1063C61.6381 7.20786 62.7146 7.55317 63.4053 8.36567C64.2584 9.36098 64.4006 10.6204 64.4006 11.8797H62.0037H61.3943C61.3334 11.8797 61.2318 11.9 61.1709 11.8594C61.1303 11.8188 61.1506 11.6969 61.1506 11.636C61.1506 11.4329 61.1506 11.2297 61.1506 11.0266C61.1303 10.6 60.8256 10.2141 60.46 10.0516C59.9928 9.82817 59.2818 9.90942 58.8553 10.1938C58.4896 10.4579 58.3881 11.0469 58.6521 11.4125C59.0584 11.9407 59.7287 12.1235 60.3178 12.3266C61.1506 12.5907 62.0037 12.875 62.7553 13.3219C65.1725 14.7032 65.2131 18.725 63.0193 20.35Z" fill="white"/>
<path opacity="0.95" d="M0.659912 23.5593H11.7099V4.68896H0.659912V23.5593ZM4.58022 20.3296V18.1968V10.7624V7.97959C4.58022 7.75615 4.58022 7.5124 4.58022 7.28896C4.58022 7.22803 4.5396 7.10615 4.60054 7.04521C4.7021 6.94365 5.10835 7.0249 5.25054 7.0249H7.07866C7.20054 7.0249 7.74897 6.94365 7.80991 7.08584C7.91147 7.28897 7.83022 7.71553 7.83022 7.93897V10.0515V17.5671V20.3296V20.9999C7.83022 21.0608 7.85054 21.1827 7.7896 21.2437C7.66772 21.3452 7.28179 21.264 7.1396 21.264H5.31147H4.78335C4.72241 21.264 4.62085 21.2843 4.58022 21.203C4.55991 21.1421 4.58022 21.0202 4.58022 20.939C4.58022 20.7358 4.58022 20.5327 4.58022 20.3296Z" fill="white"/>
<path opacity="0.95" d="M39.863 26.4436H53.0255V2.67798H39.863V26.4436ZM41.7724 7.04517C41.874 6.96392 42.1584 7.02485 42.2802 7.02485H43.7021H49.1865H50.8318C50.9537 7.02485 51.3193 6.96392 51.3599 7.12642C51.4005 7.34985 51.3599 7.63423 51.3599 7.85766V9.36079C51.3599 9.50298 51.4412 9.99048 51.3193 10.0717C51.1974 10.153 50.8318 10.092 50.6896 10.092H48.9427C48.7599 10.092 48.313 10.0108 48.1912 10.1733C48.1302 10.2545 48.1505 10.3967 48.1505 10.4983V11.2499V18.7655V20.5936C48.1505 20.7155 48.2115 21.1217 48.1099 21.203C47.988 21.3045 47.5818 21.2233 47.4396 21.2233H45.6115C45.4693 21.2233 44.9209 21.3045 44.8802 21.142C44.8193 20.9186 44.8802 20.5733 44.8802 20.3295V18.5827V12.8952V10.9045C44.8802 10.7014 44.9615 10.2952 44.8599 10.1327C44.7584 9.97017 44.2912 10.0514 44.1287 10.0514H42.4224C42.2802 10.0514 41.9146 10.1124 41.7927 10.0311C41.6912 9.94985 41.7521 9.56392 41.7521 9.44204V7.67485C41.7318 7.57329 41.6709 7.12642 41.7724 7.04517Z" fill="white"/>
<path opacity="0.95" d="M12.7256 25.8546H25.8881V2.75928H12.7256V25.8546ZM14.7568 7.0249C14.899 6.96396 15.1631 7.00459 15.3256 7.00459H16.7271H21.7037H23.2475C23.3693 7.00459 23.6943 6.94365 23.7756 7.04521C23.8771 7.14678 23.7959 7.59365 23.7959 7.73584V9.36084C23.7959 9.54365 23.8568 9.84834 23.7959 10.0108C23.7553 10.1124 23.5318 10.0718 23.4506 10.0718H22.3943H19.2459H18.3928C18.2912 10.0718 18.1287 10.0515 18.0475 10.0921C17.9053 10.1733 17.9662 10.539 17.9662 10.6812V11.8999C17.9662 12.0218 17.9256 12.2655 18.0068 12.3671C18.0881 12.489 18.2303 12.4687 18.3521 12.4687H19.2662H22.9834V14.6624C22.9834 14.8452 23.0646 15.3124 22.9631 15.4546C22.9021 15.5155 22.76 15.4952 22.6787 15.4952H21.8459H19.0225H18.3318C18.2303 15.4952 18.1084 15.4749 18.0271 15.5562C17.9256 15.6577 17.9662 15.9421 17.9662 16.0843V17.5874C17.9662 17.7296 17.9053 18.0952 18.0678 18.1765C18.21 18.2374 18.4334 18.1968 18.5959 18.1968H19.8146H23.9584V20.4718V21.0202C23.9584 21.0812 23.9787 21.1827 23.9178 21.2437C23.8162 21.3249 23.5318 21.264 23.41 21.264H22.049H16.7881H15.2443C15.1428 21.264 14.7975 21.3249 14.7162 21.2233C14.6146 21.1015 14.6959 20.6343 14.6959 20.4718V18.3593V10.214V7.79678V7.22803C14.6959 7.16709 14.6959 7.06553 14.7568 7.0249Z" fill="white"/>
<path opacity="0.95" d="M26.6193 28.6984H39.0911V0.301514H26.6193V28.6984ZM28.7521 7.06558C28.8333 6.9437 29.3411 6.98433 29.4833 6.98433L31.2099 7.00464C31.3927 7.00464 31.7583 6.96401 31.9208 7.04526C32.0427 7.1062 31.9818 7.55308 31.9818 7.67495V9.62495V15.8203V17.425C31.9818 17.5875 31.9208 17.9125 32.0224 18.0343C32.1036 18.1359 32.2661 18.1156 32.388 18.1156H33.3833H37.5068V20.4718V21.0406C37.5068 21.1015 37.5271 21.2031 37.4661 21.264C37.3646 21.3453 37.1005 21.2843 36.9786 21.2843H35.699H30.7021H29.2396C29.138 21.2843 28.813 21.3453 28.7318 21.2437C28.6911 21.1828 28.7115 21.0812 28.7115 21.0203V20.3906V18.075V9.90933V7.79683C28.7318 7.63433 28.6505 7.18745 28.7521 7.06558Z" fill="white"/>
</svg>
