<svg width="18" height="15" viewBox="0 0 18 15" fill="none" xmlns="http://www.w3.org/2000/svg">
<path d="M17.5625 11.875C17.6901 11.875 17.7949 11.916 17.877 11.998C17.959 12.0801 18 12.1849 18 12.3125V12.75C18 13.224 17.8268 13.6341 17.4805 13.9805C17.1341 14.3268 16.724 14.5 16.25 14.5H2.25C1.77604 14.5 1.36589 14.3268 1.01953 13.9805C0.673177 13.6341 0.5 13.224 0.5 12.75V12.3125C0.5 12.1849 0.541016 12.0801 0.623047 11.998C0.705078 11.916 0.809896 11.875 0.9375 11.875H7.47266C7.47266 12.0755 7.5638 12.2715 7.74609 12.4629C7.92839 12.6543 8.13802 12.75 8.375 12.75H10.043C10.2982 12.75 10.5078 12.6725 10.6719 12.5176C10.8359 12.3626 10.9271 12.1484 10.9453 11.875H17.5625ZM16.25 1.8125V11H2.25V1.8125C2.25 1.44792 2.3776 1.13802 2.63281 0.882812C2.88802 0.627604 3.19792 0.5 3.5625 0.5H14.9375C15.3021 0.5 15.612 0.627604 15.8672 0.882812C16.1224 1.13802 16.25 1.44792 16.25 1.8125ZM14.5 9.25V2.25H4V9.25H14.5Z" fill="#EE0201"/>
</svg>
