<svg width="65" height="55" viewBox="0 0 65 55" fill="none" xmlns="http://www.w3.org/2000/svg">
<path d="M54.1195 24.8048C54.1195 23.6391 53.1748 22.6944 52.0091 22.6944H16.5668C15.4011 22.6944 14.4564 23.6391 14.4564 24.8048C14.4564 25.9704 15.4011 26.9151 16.5668 26.9151H52.0091C53.1748 26.9151 54.1195 25.9704 54.1195 24.8048ZM16.5668 31.1336C15.4011 31.1336 14.4564 32.0783 14.4564 33.2439C14.4564 34.4096 15.4011 35.3543 16.5668 35.3543H31.2524C32.4181 35.3543 33.3628 34.4096 33.3628 33.2439C33.3628 32.0783 32.4181 31.1336 31.2524 31.1336H16.5668ZM40.1943 18.4759C41.36 18.4759 42.3046 17.5313 42.3046 16.3656C42.3046 15.1999 41.36 14.2553 40.1943 14.2553H26.6916C25.5259 14.2553 24.5813 15.1999 24.5813 16.3656C24.5813 17.5313 25.5259 18.4759 26.6916 18.4759H40.1943ZM61.2911 0.659424H3.90911C2.04578 0.659424 0.533447 2.17176 0.533447 4.03509V46.2288C0.533447 48.0921 2.04578 49.6044 3.90911 49.6044H35.9693V42.8531H12.3483C12.3483 40.0559 10.0819 37.7896 7.28478 37.7896V12.4743C10.0819 12.4743 12.3483 10.2079 12.3483 7.41076H52.8541C52.8541 10.2079 55.1205 12.4743 57.9176 12.4743V37.7896C55.1205 37.7896 52.8541 40.0559 52.8541 42.8531H52.8476V49.6044H61.2933C63.1566 49.6044 64.669 48.0943 64.669 46.2288V4.03509C64.6668 2.17176 63.1566 0.659424 61.2911 0.659424Z" fill="white"/>
<path d="M40.1879 46.4672V53.5868C40.1879 54.031 40.5519 54.3408 40.944 54.3408C41.0914 54.3408 41.243 54.2975 41.3795 54.2L43.9709 52.3497C44.1009 52.2565 44.2547 52.2088 44.4085 52.2088C44.5624 52.2088 44.7162 52.2565 44.8462 52.3497L47.4375 54.2C47.574 54.2975 47.7257 54.3408 47.873 54.3408C48.263 54.3408 48.6292 54.031 48.6292 53.5868V46.4672C47.3422 47.0608 45.9165 47.3988 44.4107 47.3988C42.9005 47.3988 41.4749 47.0608 40.1879 46.4672ZM44.4085 43.1803C47.6715 43.1803 50.3149 40.5348 50.3149 37.274C50.3149 34.0132 47.6694 31.3677 44.4085 31.3677C41.1455 31.3677 38.5022 34.0132 38.5022 37.274C38.5022 40.5348 41.1455 43.1803 44.4085 43.1803Z" fill="white"/>
</svg>
