<svg width="40" height="40" viewBox="0 0 40 40" fill="none" xmlns="http://www.w3.org/2000/svg">
<path opacity="0.3" d="M19.9997 3.33337C29.2047 3.33337 36.6663 10.795 36.6663 20C36.6663 29.205 29.2047 36.6667 19.9997 36.6667H6.66634C5.78229 36.6667 4.93444 36.3155 4.30932 35.6904C3.6842 35.0653 3.33301 34.2174 3.33301 33.3334V20C3.33301 10.795 10.7947 3.33337 19.9997 3.33337Z" fill="#1666C4"/>
<path d="M24.9997 16.6666H14.9997C14.5749 16.6671 14.1663 16.8298 13.8574 17.1214C13.5485 17.413 13.3626 17.8115 13.3377 18.2356C13.3128 18.6597 13.4508 19.0773 13.7234 19.403C13.9961 19.7288 14.3828 19.9381 14.8047 19.9883L14.9997 20H24.9997C25.4245 19.9995 25.8331 19.8368 26.142 19.5452C26.4508 19.2536 26.6367 18.855 26.6616 18.431C26.6865 18.0069 26.5486 17.5893 26.2759 17.2636C26.0033 16.9378 25.6165 16.7285 25.1947 16.6783L24.9997 16.6666ZM19.9997 23.3333H14.9997C14.5576 23.3333 14.1337 23.5089 13.8212 23.8214C13.5086 24.134 13.333 24.5579 13.333 25C13.333 25.442 13.5086 25.8659 13.8212 26.1785C14.1337 26.491 14.5576 26.6666 14.9997 26.6666H19.9997C20.4417 26.6666 20.8656 26.491 21.1782 26.1785C21.4907 25.8659 21.6663 25.442 21.6663 25C21.6663 24.5579 21.4907 24.134 21.1782 23.8214C20.8656 23.5089 20.4417 23.3333 19.9997 23.3333Z" fill="#1666C4"/>
</svg>
