<svg width="34" height="28" viewBox="0 0 34 28" fill="none" xmlns="http://www.w3.org/2000/svg">
<path d="M3.66634 27.3332C2.74967 27.3332 1.96523 27.0071 1.31301 26.3548C0.660786 25.7026 0.334119 24.9176 0.333008 23.9998V3.99984C0.333008 3.08317 0.659675 2.29873 1.31301 1.6465C1.96634 0.994281 2.75079 0.667615 3.66634 0.666504H30.333C31.2497 0.666504 32.0347 0.99317 32.688 1.6465C33.3413 2.29984 33.6674 3.08428 33.6663 3.99984V23.9998C33.6663 24.9165 33.3402 25.7015 32.688 26.3548C32.0358 27.0082 31.2508 27.3343 30.333 27.3332H3.66634ZM30.333 7.33317L17.8747 15.1248C17.7358 15.2082 17.5902 15.2709 17.438 15.3132C17.2858 15.3554 17.1397 15.3759 16.9997 15.3748C16.8597 15.3737 16.7141 15.3532 16.563 15.3132C16.4119 15.2732 16.2658 15.2104 16.1247 15.1248L3.66634 7.33317V23.9998H30.333V7.33317ZM16.9997 12.3332L30.333 3.99984H3.66634L16.9997 12.3332ZM3.66634 7.74984V5.2915V5.33317V5.31317V7.74984Z" fill="#1666C4"/>
</svg>
