<svg width="18" height="18" viewBox="0 0 18 18" fill="none" xmlns="http://www.w3.org/2000/svg">
<path d="M8.25841 13.9916C6.97561 13.931 5.76547 13.3785 4.87936 12.4489C3.99325 11.5194 3.49929 10.2842 3.50008 8.99996C3.50008 6.24163 5.74175 3.99996 8.50008 3.99996C11.1834 3.99996 13.3667 6.10829 13.4917 8.75829L11.7417 8.23329C11.6055 7.65561 11.3175 7.12479 10.9075 6.69569C10.4974 6.26659 9.98019 5.9548 9.40928 5.79253C8.83837 5.63026 8.23448 5.62341 7.66004 5.77269C7.08559 5.92197 6.56144 6.22195 6.14175 6.64163C5.72207 7.06132 5.42209 7.58547 5.27281 8.15992C5.12353 8.73436 5.13038 9.33825 5.29265 9.90916C5.45492 10.4801 5.76672 10.9973 6.19581 11.4073C6.62491 11.8174 7.15573 12.1054 7.73341 12.2416L8.25841 13.9916ZM16.8334 8.99996C16.8334 9.24996 16.8251 9.49996 16.8001 9.74996L15.1584 9.25829C15.1667 9.17496 15.1667 9.08329 15.1667 8.99996C15.1667 5.31663 12.1834 2.33329 8.50008 2.33329C4.81675 2.33329 1.83341 5.31663 1.83341 8.99996C1.83341 12.6833 4.81675 15.6666 8.50008 15.6666C8.58341 15.6666 8.67508 15.6666 8.75841 15.6583L9.25008 17.3C9.00008 17.325 8.75008 17.3333 8.50008 17.3333C3.90008 17.3333 0.166748 13.6 0.166748 8.99996C0.166748 4.39996 3.90008 0.666626 8.50008 0.666626C13.1001 0.666626 16.8334 4.39996 16.8334 8.99996ZM13.6917 12.55L16.8334 11.5L8.50008 8.99996L11.0001 17.3333L12.0501 14.1916L15.6084 17.75L17.2584 16.1L13.6917 12.55Z" fill="white"/>
</svg>
