<svg width="40" height="40" viewBox="0 0 40 40" fill="none" xmlns="http://www.w3.org/2000/svg">
<path d="M6.66699 29.9997C6.66699 28.2316 7.36937 26.5359 8.61961 25.2856C9.86986 24.0354 11.5655 23.333 13.3337 23.333H26.667C28.4351 23.333 30.1308 24.0354 31.381 25.2856C32.6313 26.5359 33.3337 28.2316 33.3337 29.9997C33.3337 30.8837 32.9825 31.7316 32.3573 32.3567C31.7322 32.9818 30.8844 33.333 30.0003 33.333H10.0003C9.11627 33.333 8.26842 32.9818 7.6433 32.3567C7.01818 31.7316 6.66699 30.8837 6.66699 29.9997Z" stroke="#1666C4" stroke-width="4.16667" stroke-linejoin="round"/>
<path d="M20 16.6665C22.7614 16.6665 25 14.4279 25 11.6665C25 8.90508 22.7614 6.6665 20 6.6665C17.2386 6.6665 15 8.90508 15 11.6665C15 14.4279 17.2386 16.6665 20 16.6665Z" stroke="#1666C4" stroke-width="4.16667"/>
</svg>
