<svg width="18" height="16" viewBox="0 0 18 16" fill="none" xmlns="http://www.w3.org/2000/svg">
<path fill-rule="evenodd" clip-rule="evenodd" d="M15.6665 0.5C16.087 0.499867 16.492 0.658672 16.8003 0.944581C17.1086 1.23049 17.2975 1.62237 17.329 2.04167L17.3332 2.16667V13.8333C17.3333 14.2538 17.1745 14.6588 16.8886 14.9671C16.6027 15.2754 16.2108 15.4643 15.7915 15.4958L15.6665 15.5H2.33317C1.91269 15.5001 1.5077 15.3413 1.19938 15.0554C0.891063 14.7695 0.702207 14.3776 0.670671 13.9583L0.666504 13.8333V2.16667C0.666371 1.74619 0.825176 1.34119 1.11108 1.03288C1.39699 0.724559 1.78887 0.535703 2.20817 0.504167L2.33317 0.5H15.6665ZM15.6665 2.16667H2.33317V13.8333H15.6665V2.16667ZM7.6165 4.365L8.04817 4.55667L8.32984 4.69L8.65234 4.84833L9.01067 5.03L9.40234 5.23833L9.82484 5.47167L10.0465 5.59833L10.4782 5.8525L10.8732 6.09583L11.2315 6.32333L11.5482 6.53417L11.9482 6.80917L12.2515 7.02833L12.3307 7.08667C12.4593 7.18236 12.5637 7.3068 12.6357 7.45004C12.7076 7.59328 12.7451 7.75136 12.7451 7.91167C12.7451 8.07197 12.7076 8.23005 12.6357 8.37329C12.5637 8.51654 12.4593 8.64097 12.3307 8.73667L12.0615 8.9325L11.6948 9.18917L11.3982 9.38833L11.0607 9.6075L10.6832 9.84333L10.2673 10.0933L9.82234 10.3508L9.39817 10.5858L9.00567 10.7942L8.64734 10.9775L8.32567 11.1342L7.80734 11.3742L7.61567 11.4575C7.46852 11.5209 7.30859 11.5491 7.14864 11.5397C6.98869 11.5303 6.83313 11.4837 6.69439 11.4036C6.55564 11.3234 6.43754 11.212 6.3495 11.0781C6.26147 10.9442 6.20594 10.7916 6.18734 10.6325L6.139 10.1617L6.11234 9.85L6.07734 9.29667L6.05817 8.87333L6.04567 8.41083L6.04234 8.16583L6.04067 7.91167C6.04067 7.73944 6.04234 7.57278 6.04567 7.41167L6.05817 6.94917L6.07734 6.52667L6.09984 6.14583L6.12484 5.81167L6.18734 5.19167C6.20583 5.03235 6.2613 4.87956 6.34933 4.74548C6.43736 4.61141 6.5555 4.49977 6.69434 4.41946C6.83317 4.33915 6.98886 4.29241 7.14897 4.28295C7.30908 4.2735 7.46918 4.30159 7.6165 4.365ZM8.12567 6.44917L7.76234 6.2675L7.73817 6.67333L7.71984 7.1325L7.709 7.64083L7.70734 7.91167L7.709 8.1825L7.71984 8.69L7.72817 8.92583L7.74984 9.35917L7.76234 9.555L8.124 9.37333L8.52984 9.16L8.97567 8.915L9.21234 8.78L9.6715 8.50833L10.0832 8.25333L10.4465 8.02L10.6098 7.91167L10.2707 7.68667L9.88234 7.44167C9.66137 7.30486 9.43829 7.17151 9.21317 7.04167L8.97734 6.9075L8.53234 6.6625L8.12567 6.44917Z" fill="white"/>
</svg>
