<svg width="64" height="63" viewBox="0 0 64 63" fill="none" xmlns="http://www.w3.org/2000/svg">
<path d="M32.0044 0C14.6149 0 0.52002 14.0948 0.52002 31.4844C0.52002 48.8739 14.6149 62.9688 32.0044 62.9688C49.3939 62.9688 63.4888 48.8739 63.4888 31.4844C63.4888 14.0948 49.3939 0 32.0044 0ZM59.3755 30.4688H47.1961C47.0844 25.9695 46.2841 21.6714 44.8642 17.7369C47.6064 16.5933 50.1414 15.0719 52.453 13.2742C56.5622 17.8872 59.1317 23.8773 59.3755 30.4688ZM30.8811 58.8494C27.5052 56.0381 24.6736 52.388 22.6017 48.1488C25.2606 47.318 28.078 46.863 30.9888 46.7695V58.8534C30.9522 58.8534 30.9177 58.8514 30.8811 58.8494ZM33.1236 4.11938C36.9546 7.30844 40.0806 11.5802 42.1952 16.5628C39.2986 17.552 36.2213 18.1269 33.018 18.2284V4.11328C33.0566 4.11531 33.0891 4.11734 33.1236 4.11938ZM36.5077 4.46469C42.1139 5.39703 47.1433 8.01531 51.0596 11.8056C48.9328 13.4367 46.6091 14.818 44.0964 15.8641C42.248 11.4827 39.6541 7.60906 36.5077 4.46469ZM30.9888 4.11328V18.2284C27.7855 18.1248 24.7061 17.552 21.8116 16.5628C23.9261 11.5802 27.0522 7.30844 30.8831 4.11938C30.9197 4.11734 30.9522 4.11531 30.9888 4.11328ZM19.9103 15.8661C17.4017 14.82 15.076 13.4388 12.9492 11.8077C16.8635 8.01734 21.8949 5.39906 27.5011 4.46672C24.3527 7.60906 21.7608 11.4827 19.9103 15.8661ZM21.0458 18.4356C24.178 19.5223 27.5153 20.1561 30.9888 20.2617V30.4688H18.8439C18.9536 26.2153 19.7072 22.1508 21.0458 18.4356ZM30.9888 32.5V44.7383C27.7855 44.8358 24.6878 45.3598 21.7689 46.3003C20.0099 42.1119 18.9719 37.4461 18.8439 32.5H30.9888ZM27.5011 58.5041C22.4778 57.6692 17.9156 55.4816 14.2066 52.3047C16.2074 50.9173 18.3706 49.7433 20.6822 48.8516C22.4535 52.5241 24.7711 55.7842 27.5011 58.5041ZM33.02 58.8555V46.7716C35.9288 46.865 38.7481 47.32 41.4071 48.1508C39.3331 52.39 36.5036 56.0402 33.1277 58.8514C33.0931 58.8514 33.0566 58.8534 33.02 58.8555ZM43.3266 48.8516C45.6361 49.7433 47.7974 50.9194 49.8022 52.3047C46.0931 55.4795 41.531 57.6692 36.5077 58.5041C39.2377 55.7842 41.5533 52.5241 43.3266 48.8516ZM42.2399 46.3003C39.3189 45.3598 36.2213 44.8358 33.02 44.7383V32.5H45.1649C45.0369 37.4461 43.9969 42.1119 42.2399 46.3003ZM33.02 30.4688V20.2617C36.4914 20.1561 39.8288 19.5244 42.963 18.4377C44.2996 22.1528 45.0531 26.2173 45.1649 30.4708H33.02V30.4688ZM11.5578 13.2742C13.8694 15.0719 16.4044 16.5933 19.1446 17.7369C17.7247 21.6714 16.9244 25.9695 16.8127 30.4688H4.6333C4.87705 23.8773 7.44658 17.8872 11.5578 13.2742ZM4.6333 32.5H16.8127C16.9386 37.6898 18.0233 42.5912 19.8656 46.997C17.2921 48.0005 14.8931 49.337 12.6791 50.9194C7.90971 46.1723 4.89939 39.6825 4.6333 32.5ZM51.3297 50.9173C49.1156 49.337 46.7167 47.9984 44.1411 46.995C45.9855 42.5892 47.0681 37.6878 47.1961 32.498H59.3755C59.1094 39.6825 56.097 46.1723 51.3297 50.9173Z" fill="white"/>
</svg>
